<svg xmlns="http://www.w3.org/2000/svg" xmlns:xlink="http://www.w3.org/1999/xlink" width="500" zoomAndPan="magnify" viewBox="0 0 375 374.999991" height="500" preserveAspectRatio="xMidYMid meet" version="1.0"><defs><g/><clipPath id="e674dce254"><rect x="0" width="219" y="0" height="289"/></clipPath></defs><rect x="-37.5" width="450" fill="#ffffff" y="-37.499999" height="449.999989" fill-opacity="1"/><rect x="-37.5" width="450" fill="#000000" y="-37.499999" height="449.999989" fill-opacity="1"/><g transform="matrix(1, 0, 0, 1, 81, 43)"><g clip-path="url(#e674dce254)"><g fill="#ffffff" fill-opacity="1"><g transform="translate(0.908268, 218.735109)"><g><path d="M 96.695312 -175.867188 C 96.0625 -143.777344 97.328125 -41.167969 9.710938 3.167969 C 14.566406 6.542969 19.632812 11.191406 22.378906 15.410156 C 73.894531 -12.035156 96.273438 -59.324219 105.984375 -101.550781 C 116.117188 -62.28125 138.707031 -10.132812 191.488281 14.566406 C 193.8125 10.132812 198.457031 4.855469 202.890625 1.265625 C 128.363281 -31.878906 115.695312 -120.128906 112.53125 -145.253906 C 113.585938 -157.710938 113.796875 -168.265625 114.007812 -175.867188 Z M 96.695312 -175.867188 "/></g></g></g></g></g></svg>