<svg xmlns="http://www.w3.org/2000/svg" xmlns:xlink="http://www.w3.org/1999/xlink" width="500" zoomAndPan="magnify" viewBox="0 0 375 74.999997" height="100" preserveAspectRatio="xMidYMid meet" version="1.0"><defs><g/><clipPath id="5c5eb159ba"><rect x="0" width="73" y="0" height="56"/></clipPath><clipPath id="6a053c4388"><rect x="0" width="289" y="0" height="61"/></clipPath></defs><g transform="matrix(1, 0, 0, 1, 2, 10)"><g clip-path="url(#5c5eb159ba)"><g fill="#ffffff" fill-opacity="1"><g transform="translate(17.596164, 0.971765)"><g><path d="M 44.183594 24.292969 C 36.121094 24.132812 10.34375 24.453125 -0.796875 2.441406 C -1.644531 3.660156 -2.8125 4.933594 -3.871094 5.621094 C 3.023438 18.566406 14.90625 24.1875 25.511719 26.628906 C 15.648438 29.171875 2.546875 34.847656 -3.660156 48.109375 C -2.546875 48.691406 -1.21875 49.859375 -0.316406 50.972656 C 8.007812 32.25 30.179688 29.066406 36.492188 28.273438 C 39.621094 28.535156 42.273438 28.589844 44.183594 28.644531 Z M 44.183594 24.292969 "/></g></g></g></g></g><g transform="matrix(1, 0, 0, 1, 80, 7)"><g clip-path="url(#6a053c4388)"><g fill="#ffffff" fill-opacity="1"><g transform="translate(0.522682, 45.360094)"><g><path d="M 1.828125 -11.71875 C 1.828125 -14.09375 2.304688 -16.175781 3.265625 -17.96875 C 4.234375 -19.769531 5.554688 -21.164062 7.234375 -22.15625 C 8.921875 -23.144531 10.796875 -23.640625 12.859375 -23.640625 C 14.898438 -23.640625 16.671875 -23.203125 18.171875 -22.328125 C 19.671875 -21.453125 20.789062 -20.347656 21.53125 -19.015625 L 21.53125 -23.265625 L 25.421875 -23.265625 L 25.421875 0 L 21.53125 0 L 21.53125 -4.328125 C 20.757812 -2.972656 19.613281 -1.847656 18.09375 -0.953125 C 16.582031 -0.0664062 14.828125 0.375 12.828125 0.375 C 10.753906 0.375 8.882812 -0.128906 7.21875 -1.140625 C 5.550781 -2.160156 4.234375 -3.585938 3.265625 -5.421875 C 2.304688 -7.265625 1.828125 -9.363281 1.828125 -11.71875 Z M 21.53125 -11.671875 C 21.53125 -13.429688 21.175781 -14.960938 20.46875 -16.265625 C 19.757812 -17.566406 18.800781 -18.5625 17.59375 -19.25 C 16.394531 -19.945312 15.070312 -20.296875 13.625 -20.296875 C 12.1875 -20.296875 10.867188 -19.953125 9.671875 -19.265625 C 8.484375 -18.585938 7.535156 -17.597656 6.828125 -16.296875 C 6.128906 -14.992188 5.78125 -13.46875 5.78125 -11.71875 C 5.78125 -9.9375 6.128906 -8.382812 6.828125 -7.0625 C 7.535156 -5.75 8.484375 -4.742188 9.671875 -4.046875 C 10.867188 -3.359375 12.1875 -3.015625 13.625 -3.015625 C 15.070312 -3.015625 16.394531 -3.359375 17.59375 -4.046875 C 18.800781 -4.742188 19.757812 -5.75 20.46875 -7.0625 C 21.175781 -8.382812 21.53125 -9.921875 21.53125 -11.671875 Z M 21.53125 -11.671875 "/></g></g></g><g fill="#ffffff" fill-opacity="1"><g transform="translate(29.223872, 45.360094)"><g><path d="M 1.828125 -11.71875 C 1.828125 -14.09375 2.304688 -16.175781 3.265625 -17.96875 C 4.234375 -19.769531 5.554688 -21.164062 7.234375 -22.15625 C 8.921875 -23.144531 10.8125 -23.640625 12.90625 -23.640625 C 14.71875 -23.640625 16.398438 -23.222656 17.953125 -22.390625 C 19.515625 -21.554688 20.707031 -20.460938 21.53125 -19.109375 L 21.53125 -31.421875 L 25.421875 -31.421875 L 25.421875 0 L 21.53125 0 L 21.53125 -4.375 C 20.757812 -2.988281 19.625 -1.847656 18.125 -0.953125 C 16.625 -0.0664062 14.867188 0.375 12.859375 0.375 C 10.796875 0.375 8.921875 -0.128906 7.234375 -1.140625 C 5.554688 -2.160156 4.234375 -3.585938 3.265625 -5.421875 C 2.304688 -7.265625 1.828125 -9.363281 1.828125 -11.71875 Z M 21.53125 -11.671875 C 21.53125 -13.429688 21.175781 -14.960938 20.46875 -16.265625 C 19.757812 -17.566406 18.800781 -18.5625 17.59375 -19.25 C 16.394531 -19.945312 15.070312 -20.296875 13.625 -20.296875 C 12.1875 -20.296875 10.867188 -19.953125 9.671875 -19.265625 C 8.484375 -18.585938 7.535156 -17.597656 6.828125 -16.296875 C 6.128906 -14.992188 5.78125 -13.46875 5.78125 -11.71875 C 5.78125 -9.9375 6.128906 -8.382812 6.828125 -7.0625 C 7.535156 -5.75 8.484375 -4.742188 9.671875 -4.046875 C 10.867188 -3.359375 12.1875 -3.015625 13.625 -3.015625 C 15.070312 -3.015625 16.394531 -3.359375 17.59375 -4.046875 C 18.800781 -4.742188 19.757812 -5.75 20.46875 -7.0625 C 21.175781 -8.382812 21.53125 -9.921875 21.53125 -11.671875 Z M 21.53125 -11.671875 "/></g></g></g><g fill="#ffffff" fill-opacity="1"><g transform="translate(57.925063, 45.360094)"><g/></g></g><g fill="#ffffff" fill-opacity="1"><g transform="translate(69.261186, 45.360094)"><g><path d="M 31.25 -23.6875 C 33.0625 -23.6875 34.671875 -23.3125 36.078125 -22.5625 C 37.492188 -21.8125 38.613281 -20.6875 39.4375 -19.1875 C 40.257812 -17.6875 40.671875 -15.863281 40.671875 -13.71875 L 40.671875 0 L 36.84375 0 L 36.84375 -13.15625 C 36.84375 -15.476562 36.269531 -17.253906 35.125 -18.484375 C 33.976562 -19.710938 32.429688 -20.328125 30.484375 -20.328125 C 28.472656 -20.328125 26.875 -19.679688 25.6875 -18.390625 C 24.5 -17.109375 23.90625 -15.253906 23.90625 -12.828125 L 23.90625 0 L 20.078125 0 L 20.078125 -13.15625 C 20.078125 -15.476562 19.503906 -17.253906 18.359375 -18.484375 C 17.210938 -19.710938 15.664062 -20.328125 13.71875 -20.328125 C 11.707031 -20.328125 10.101562 -19.679688 8.90625 -18.390625 C 7.71875 -17.109375 7.125 -15.253906 7.125 -12.828125 L 7.125 0 L 3.265625 0 L 3.265625 -23.265625 L 7.125 -23.265625 L 7.125 -19.90625 C 7.894531 -21.125 8.921875 -22.054688 10.203125 -22.703125 C 11.492188 -23.359375 12.914062 -23.6875 14.46875 -23.6875 C 16.425781 -23.6875 18.15625 -23.25 19.65625 -22.375 C 21.15625 -21.5 22.273438 -20.210938 23.015625 -18.515625 C 23.660156 -20.148438 24.734375 -21.421875 26.234375 -22.328125 C 27.734375 -23.234375 29.40625 -23.6875 31.25 -23.6875 Z M 31.25 -23.6875 "/></g></g></g><g fill="#ffffff" fill-opacity="1"><g transform="translate(112.99229, 45.360094)"><g><path d="M 1.828125 -11.71875 C 1.828125 -14.09375 2.304688 -16.175781 3.265625 -17.96875 C 4.234375 -19.769531 5.554688 -21.164062 7.234375 -22.15625 C 8.921875 -23.144531 10.796875 -23.640625 12.859375 -23.640625 C 14.898438 -23.640625 16.671875 -23.203125 18.171875 -22.328125 C 19.671875 -21.453125 20.789062 -20.347656 21.53125 -19.015625 L 21.53125 -23.265625 L 25.421875 -23.265625 L 25.421875 0 L 21.53125 0 L 21.53125 -4.328125 C 20.757812 -2.972656 19.613281 -1.847656 18.09375 -0.953125 C 16.582031 -0.0664062 14.828125 0.375 12.828125 0.375 C 10.753906 0.375 8.882812 -0.128906 7.21875 -1.140625 C 5.550781 -2.160156 4.234375 -3.585938 3.265625 -5.421875 C 2.304688 -7.265625 1.828125 -9.363281 1.828125 -11.71875 Z M 21.53125 -11.671875 C 21.53125 -13.429688 21.175781 -14.960938 20.46875 -16.265625 C 19.757812 -17.566406 18.800781 -18.5625 17.59375 -19.25 C 16.394531 -19.945312 15.070312 -20.296875 13.625 -20.296875 C 12.1875 -20.296875 10.867188 -19.953125 9.671875 -19.265625 C 8.484375 -18.585938 7.535156 -17.597656 6.828125 -16.296875 C 6.128906 -14.992188 5.78125 -13.46875 5.78125 -11.71875 C 5.78125 -9.9375 6.128906 -8.382812 6.828125 -7.0625 C 7.535156 -5.75 8.484375 -4.742188 9.671875 -4.046875 C 10.867188 -3.359375 12.1875 -3.015625 13.625 -3.015625 C 15.070312 -3.015625 16.394531 -3.359375 17.59375 -4.046875 C 18.800781 -4.742188 19.757812 -5.75 20.46875 -7.0625 C 21.175781 -8.382812 21.53125 -9.921875 21.53125 -11.671875 Z M 21.53125 -11.671875 "/></g></g></g><g fill="#ffffff" fill-opacity="1"><g transform="translate(141.69348, 45.360094)"><g><path d="M 7.125 -19.484375 C 7.8125 -20.816406 8.78125 -21.847656 10.03125 -22.578125 C 11.289062 -23.316406 12.828125 -23.6875 14.640625 -23.6875 L 14.640625 -19.703125 L 13.625 -19.703125 C 9.289062 -19.703125 7.125 -17.351562 7.125 -12.65625 L 7.125 0 L 3.265625 0 L 3.265625 -23.265625 L 7.125 -23.265625 Z M 7.125 -19.484375 "/></g></g></g><g fill="#ffffff" fill-opacity="1"><g transform="translate(157.530079, 45.360094)"><g><path d="M 16.265625 0 L 7.125 -10.28125 L 7.125 0 L 3.265625 0 L 3.265625 -31.421875 L 7.125 -31.421875 L 7.125 -12.953125 L 16.09375 -23.265625 L 21.484375 -23.265625 L 10.53125 -11.671875 L 21.53125 0 Z M 16.265625 0 "/></g></g></g><g fill="#ffffff" fill-opacity="1"><g transform="translate(179.395623, 45.360094)"><g><path d="M 24.5 -12.53125 C 24.5 -11.789062 24.457031 -11.007812 24.375 -10.1875 L 5.78125 -10.1875 C 5.914062 -7.894531 6.695312 -6.101562 8.125 -4.8125 C 9.5625 -3.53125 11.296875 -2.890625 13.328125 -2.890625 C 14.992188 -2.890625 16.382812 -3.273438 17.5 -4.046875 C 18.625 -4.828125 19.414062 -5.867188 19.875 -7.171875 L 24.03125 -7.171875 C 23.40625 -4.941406 22.15625 -3.125 20.28125 -1.71875 C 18.414062 -0.320312 16.097656 0.375 13.328125 0.375 C 11.117188 0.375 9.144531 -0.117188 7.40625 -1.109375 C 5.664062 -2.097656 4.300781 -3.503906 3.3125 -5.328125 C 2.320312 -7.148438 1.828125 -9.265625 1.828125 -11.671875 C 1.828125 -14.078125 2.304688 -16.1875 3.265625 -18 C 4.234375 -19.8125 5.585938 -21.203125 7.328125 -22.171875 C 9.066406 -23.148438 11.066406 -23.640625 13.328125 -23.640625 C 15.535156 -23.640625 17.488281 -23.160156 19.1875 -22.203125 C 20.882812 -21.242188 22.191406 -19.921875 23.109375 -18.234375 C 24.035156 -16.546875 24.5 -14.644531 24.5 -12.53125 Z M 20.5 -13.328125 C 20.5 -14.796875 20.171875 -16.0625 19.515625 -17.125 C 18.867188 -18.1875 17.988281 -18.992188 16.875 -19.546875 C 15.757812 -20.097656 14.519531 -20.375 13.15625 -20.375 C 11.207031 -20.375 9.546875 -19.75 8.171875 -18.5 C 6.796875 -17.257812 6.007812 -15.535156 5.8125 -13.328125 Z M 20.5 -13.328125 "/></g></g></g><g fill="#ffffff" fill-opacity="1"><g transform="translate(205.719193, 45.360094)"><g><path d="M 7.984375 -20.078125 L 7.984375 -6.375 C 7.984375 -5.238281 8.222656 -4.4375 8.703125 -3.96875 C 9.179688 -3.5 10.015625 -3.265625 11.203125 -3.265625 L 14.046875 -3.265625 L 14.046875 0 L 10.578125 0 C 8.421875 0 6.804688 -0.492188 5.734375 -1.484375 C 4.660156 -2.472656 4.125 -4.101562 4.125 -6.375 L 4.125 -20.078125 L 1.109375 -20.078125 L 1.109375 -23.265625 L 4.125 -23.265625 L 4.125 -29.125 L 7.984375 -29.125 L 7.984375 -23.265625 L 14.046875 -23.265625 L 14.046875 -20.078125 Z M 7.984375 -20.078125 "/></g></g></g><g fill="#ffffff" fill-opacity="1"><g transform="translate(221.173675, 45.360094)"><g><path d="M 5.265625 -27.046875 C 4.523438 -27.046875 3.898438 -27.300781 3.390625 -27.8125 C 2.878906 -28.320312 2.625 -28.941406 2.625 -29.671875 C 2.625 -30.410156 2.878906 -31.035156 3.390625 -31.546875 C 3.898438 -32.054688 4.523438 -32.3125 5.265625 -32.3125 C 5.972656 -32.3125 6.570312 -32.054688 7.0625 -31.546875 C 7.5625 -31.035156 7.8125 -30.410156 7.8125 -29.671875 C 7.8125 -28.941406 7.5625 -28.320312 7.0625 -27.8125 C 6.570312 -27.300781 5.972656 -27.046875 5.265625 -27.046875 Z M 7.125 -23.265625 L 7.125 0 L 3.265625 0 L 3.265625 -23.265625 Z M 7.125 -23.265625 "/></g></g></g><g fill="#ffffff" fill-opacity="1"><g transform="translate(231.618195, 45.360094)"><g><path d="M 14.609375 -23.6875 C 17.429688 -23.6875 19.71875 -22.828125 21.46875 -21.109375 C 23.226562 -19.398438 24.109375 -16.9375 24.109375 -13.71875 L 24.109375 0 L 20.296875 0 L 20.296875 -13.15625 C 20.296875 -15.476562 19.710938 -17.253906 18.546875 -18.484375 C 17.390625 -19.710938 15.804688 -20.328125 13.796875 -20.328125 C 11.753906 -20.328125 10.128906 -19.691406 8.921875 -18.421875 C 7.722656 -17.148438 7.125 -15.296875 7.125 -12.859375 L 7.125 0 L 3.265625 0 L 3.265625 -23.265625 L 7.125 -23.265625 L 7.125 -19.953125 C 7.894531 -21.140625 8.9375 -22.054688 10.25 -22.703125 C 11.5625 -23.359375 13.015625 -23.6875 14.609375 -23.6875 Z M 14.609375 -23.6875 "/></g></g></g><g fill="#ffffff" fill-opacity="1"><g transform="translate(258.790917, 45.360094)"><g><path d="M 12.859375 -23.640625 C 14.867188 -23.640625 16.628906 -23.203125 18.140625 -22.328125 C 19.660156 -21.453125 20.789062 -20.347656 21.53125 -19.015625 L 21.53125 -23.265625 L 25.421875 -23.265625 L 25.421875 0.515625 C 25.421875 2.628906 24.96875 4.515625 24.0625 6.171875 C 23.164062 7.828125 21.875 9.125 20.1875 10.0625 C 18.5 11 16.539062 11.46875 14.3125 11.46875 C 11.25 11.46875 8.695312 10.742188 6.65625 9.296875 C 4.625 7.847656 3.425781 5.878906 3.0625 3.390625 L 6.875 3.390625 C 7.300781 4.804688 8.175781 5.945312 9.5 6.8125 C 10.832031 7.675781 12.4375 8.109375 14.3125 8.109375 C 16.425781 8.109375 18.15625 7.441406 19.5 6.109375 C 20.851562 4.785156 21.53125 2.921875 21.53125 0.515625 L 21.53125 -4.375 C 20.757812 -3.007812 19.625 -1.875 18.125 -0.96875 C 16.625 -0.0703125 14.867188 0.375 12.859375 0.375 C 10.796875 0.375 8.921875 -0.128906 7.234375 -1.140625 C 5.554688 -2.160156 4.234375 -3.585938 3.265625 -5.421875 C 2.304688 -7.265625 1.828125 -9.363281 1.828125 -11.71875 C 1.828125 -14.09375 2.304688 -16.175781 3.265625 -17.96875 C 4.234375 -19.769531 5.554688 -21.164062 7.234375 -22.15625 C 8.921875 -23.144531 10.796875 -23.640625 12.859375 -23.640625 Z M 21.53125 -11.671875 C 21.53125 -13.429688 21.175781 -14.960938 20.46875 -16.265625 C 19.757812 -17.566406 18.800781 -18.5625 17.59375 -19.25 C 16.394531 -19.945312 15.070312 -20.296875 13.625 -20.296875 C 12.1875 -20.296875 10.867188 -19.953125 9.671875 -19.265625 C 8.484375 -18.585938 7.535156 -17.597656 6.828125 -16.296875 C 6.128906 -14.992188 5.78125 -13.46875 5.78125 -11.71875 C 5.78125 -9.9375 6.128906 -8.382812 6.828125 -7.0625 C 7.535156 -5.75 8.484375 -4.742188 9.671875 -4.046875 C 10.867188 -3.359375 12.1875 -3.015625 13.625 -3.015625 C 15.070312 -3.015625 16.394531 -3.359375 17.59375 -4.046875 C 18.800781 -4.742188 19.757812 -5.75 20.46875 -7.0625 C 21.175781 -8.382812 21.53125 -9.921875 21.53125 -11.671875 Z M 21.53125 -11.671875 "/></g></g></g></g></g></svg>