<svg xmlns="http://www.w3.org/2000/svg" xmlns:xlink="http://www.w3.org/1999/xlink" width="300" zoomAndPan="magnify" viewBox="0 0 87 30.749998" height="45" preserveAspectRatio="xMidYMid meet" version="1.0"><defs><g/><clipPath id="6d90583d7b"><path d="M 0.351562 0 L 43 0 L 43 30.503906 L 0.351562 30.503906 Z M 0.351562 0 " clip-rule="nonzero"/></clipPath><clipPath id="aac7e0affa"><path d="M 4 1 L 35 1 L 35 30.503906 L 4 30.503906 Z M 4 1 " clip-rule="nonzero"/></clipPath><clipPath id="60420837ac"><rect x="0" width="43" y="0" height="31"/></clipPath><clipPath id="3675f7158c"><path d="M 42 0 L 86.648438 0 L 86.648438 30.503906 L 42 30.503906 Z M 42 0 " clip-rule="nonzero"/></clipPath><clipPath id="6da8319243"><path d="M 44 8 L 44.648438 8 L 44.648438 24 L 44 24 Z M 44 8 " clip-rule="nonzero"/></clipPath><clipPath id="76aff9fdf3"><rect x="0" width="45" y="0" height="31"/></clipPath></defs><g clip-path="url(#6d90583d7b)"><g transform="matrix(1, 0, 0, 1, 0, 0.000000000000006578)"><g clip-path="url(#60420837ac)"><g clip-path="url(#aac7e0affa)"><g fill="#000000" fill-opacity="1"><g transform="translate(7.166342, 0.439581)"><g><path d="M 27.140625 14.921875 C 22.1875 14.824219 6.351562 15.019531 -0.488281 1.5 C -1.011719 2.25 -1.726562 3.03125 -2.378906 3.453125 C 1.855469 11.402344 9.15625 14.855469 15.671875 16.355469 C 9.613281 17.921875 1.5625 21.40625 -2.25 29.550781 C -1.5625 29.910156 -0.75 30.628906 -0.195312 31.3125 C 4.917969 19.808594 18.539062 17.855469 22.417969 17.367188 C 24.339844 17.527344 25.96875 17.5625 27.140625 17.59375 Z M 27.140625 14.921875 "/></g></g></g></g></g></g></g><g clip-path="url(#3675f7158c)"><g transform="matrix(1, 0, 0, 1, 42, 0.000000000000006572)"><g clip-path="url(#76aff9fdf3)"><g fill="#000000" fill-opacity="1"><g transform="translate(0.67296, 23.100307)"><g><path d="M 0.96875 -7.25 C 0.96875 -8.695312 1.265625 -9.972656 1.859375 -11.078125 C 2.460938 -12.191406 3.28125 -13.054688 4.3125 -13.671875 C 5.351562 -14.296875 6.5 -14.609375 7.75 -14.609375 C 8.875 -14.609375 9.859375 -14.382812 10.703125 -13.9375 C 11.546875 -13.5 12.21875 -12.945312 12.71875 -12.28125 L 12.71875 -14.375 L 15.71875 -14.375 L 15.71875 0 L 12.71875 0 L 12.71875 -2.140625 C 12.21875 -1.460938 11.53125 -0.894531 10.65625 -0.4375 C 9.789062 0.0078125 8.800781 0.234375 7.6875 0.234375 C 6.457031 0.234375 5.328125 -0.0820312 4.296875 -0.71875 C 3.273438 -1.351562 2.460938 -2.238281 1.859375 -3.375 C 1.265625 -4.507812 0.96875 -5.800781 0.96875 -7.25 Z M 12.71875 -7.203125 C 12.71875 -8.191406 12.515625 -9.050781 12.109375 -9.78125 C 11.703125 -10.507812 11.164062 -11.0625 10.5 -11.4375 C 9.84375 -11.820312 9.132812 -12.015625 8.375 -12.015625 C 7.601562 -12.015625 6.882812 -11.828125 6.21875 -11.453125 C 5.5625 -11.085938 5.03125 -10.539062 4.625 -9.8125 C 4.21875 -9.09375 4.015625 -8.238281 4.015625 -7.25 C 4.015625 -6.257812 4.21875 -5.390625 4.625 -4.640625 C 5.03125 -3.890625 5.566406 -3.316406 6.234375 -2.921875 C 6.910156 -2.535156 7.625 -2.34375 8.375 -2.34375 C 9.132812 -2.34375 9.84375 -2.535156 10.5 -2.921875 C 11.164062 -3.304688 11.703125 -3.867188 12.109375 -4.609375 C 12.515625 -5.347656 12.71875 -6.210938 12.71875 -7.203125 Z M 12.71875 -7.203125 "/></g></g></g><g fill="#000000" fill-opacity="1"><g transform="translate(18.34429, 23.100307)"><g><path d="M 0.96875 -7.25 C 0.96875 -8.695312 1.265625 -9.972656 1.859375 -11.078125 C 2.460938 -12.191406 3.28125 -13.054688 4.3125 -13.671875 C 5.351562 -14.296875 6.503906 -14.609375 7.765625 -14.609375 C 8.703125 -14.609375 9.628906 -14.398438 10.546875 -13.984375 C 11.460938 -13.578125 12.1875 -13.035156 12.71875 -12.359375 L 12.71875 -19.296875 L 15.71875 -19.296875 L 15.71875 0 L 12.71875 0 L 12.71875 -2.171875 C 12.238281 -1.472656 11.566406 -0.894531 10.703125 -0.4375 C 9.847656 0.0078125 8.863281 0.234375 7.75 0.234375 C 6.5 0.234375 5.351562 -0.0820312 4.3125 -0.71875 C 3.28125 -1.351562 2.460938 -2.238281 1.859375 -3.375 C 1.265625 -4.507812 0.96875 -5.800781 0.96875 -7.25 Z M 12.71875 -7.203125 C 12.71875 -8.191406 12.515625 -9.050781 12.109375 -9.78125 C 11.703125 -10.507812 11.164062 -11.0625 10.5 -11.4375 C 9.84375 -11.820312 9.132812 -12.015625 8.375 -12.015625 C 7.601562 -12.015625 6.882812 -11.828125 6.21875 -11.453125 C 5.5625 -11.085938 5.03125 -10.539062 4.625 -9.8125 C 4.21875 -9.09375 4.015625 -8.238281 4.015625 -7.25 C 4.015625 -6.257812 4.21875 -5.390625 4.625 -4.640625 C 5.03125 -3.890625 5.566406 -3.316406 6.234375 -2.921875 C 6.910156 -2.535156 7.625 -2.34375 8.375 -2.34375 C 9.132812 -2.34375 9.84375 -2.535156 10.5 -2.921875 C 11.164062 -3.304688 11.703125 -3.867188 12.109375 -4.609375 C 12.515625 -5.347656 12.71875 -6.210938 12.71875 -7.203125 Z M 12.71875 -7.203125 "/></g></g></g><g fill="#000000" fill-opacity="1"><g transform="translate(36.015621, 23.100307)"><g/></g></g><g clip-path="url(#6da8319243)"><g fill="#000000" fill-opacity="1"><g transform="translate(42.79223, 23.100307)"><g><path d="M 19.34375 -14.609375 C 20.476562 -14.609375 21.492188 -14.375 22.390625 -13.90625 C 23.285156 -13.4375 23.988281 -12.738281 24.5 -11.8125 C 25.007812 -10.894531 25.265625 -9.78125 25.265625 -8.46875 L 25.265625 0 L 22.328125 0 L 22.328125 -8.03125 C 22.328125 -9.320312 22.003906 -10.304688 21.359375 -10.984375 C 20.710938 -11.671875 19.832031 -12.015625 18.71875 -12.015625 C 17.613281 -12.015625 16.734375 -11.671875 16.078125 -10.984375 C 15.421875 -10.304688 15.09375 -9.320312 15.09375 -8.03125 L 15.09375 0 L 12.15625 0 L 12.15625 -8.03125 C 12.15625 -9.320312 11.832031 -10.304688 11.1875 -10.984375 C 10.539062 -11.671875 9.660156 -12.015625 8.546875 -12.015625 C 7.441406 -12.015625 6.5625 -11.671875 5.90625 -10.984375 C 5.25 -10.304688 4.921875 -9.320312 4.921875 -8.03125 L 4.921875 0 L 1.953125 0 L 1.953125 -14.375 L 4.921875 -14.375 L 4.921875 -12.71875 C 5.410156 -13.3125 6.03125 -13.773438 6.78125 -14.109375 C 7.53125 -14.441406 8.328125 -14.609375 9.171875 -14.609375 C 10.328125 -14.609375 11.351562 -14.363281 12.25 -13.875 C 13.15625 -13.382812 13.851562 -12.679688 14.34375 -11.765625 C 14.78125 -12.628906 15.457031 -13.316406 16.375 -13.828125 C 17.300781 -14.347656 18.289062 -14.609375 19.34375 -14.609375 Z M 19.34375 -14.609375 "/></g></g></g></g></g></g></g></svg>