<svg width="153" height="28" viewBox="0 0 153 28" fill="none" xmlns="http://www.w3.org/2000/svg">
<path fill-rule="evenodd" clip-rule="evenodd" d="M27.1057 21.039L26.9529 20.7768L16.7228 3.09098C16.1729 2.13643 15.142 1.49243 13.9584 1.49243C12.7748 1.49243 11.7438 2.13643 11.194 3.09098L0.961302 20.7768L0.811121 21.039C0.533666 21.5124 0.373302 22.0623 0.373302 22.6502C0.373302 22.8081 0.429302 23.2382 0.429302 23.2382C0.704212 24.7121 1.99985 25.827 3.55512 25.827C3.89112 25.827 4.21185 25.7735 4.51476 25.6793L13.4595 22.7292C13.6148 22.6782 13.7853 22.6502 13.9584 22.6502C14.1315 22.6502 14.302 22.6782 14.4573 22.7292L23.402 25.6793C23.7049 25.7735 24.0257 25.827 24.3617 25.827C25.9169 25.827 27.2126 24.7121 27.4875 23.2382C27.4875 23.2382 27.5435 22.8081 27.5435 22.6502C27.5435 22.0623 27.3831 21.5124 27.1057 21.039ZM43.2086 13.8979L43.0823 13.8583C41.5799 13.3879 40.1948 12.9543 40.1948 11.8895V11.859C40.1948 10.8841 41.078 10.1535 42.4475 10.1535C43.4529 10.1535 44.4864 10.4895 45.4893 11.0673C45.5081 11.0734 45.528 11.0808 45.5492 11.0886C45.6339 11.1199 45.7398 11.159 45.8864 11.159C46.3115 11.159 46.6475 10.823 46.6475 10.4284C46.6475 10.0924 46.4337 9.85061 46.2224 9.69788C45.0948 9.08952 43.7253 8.69497 42.5086 8.69497C40.1948 8.69497 38.5529 10.0313 38.5529 12.0422V12.0728C38.5529 14.2008 40.5919 14.8422 42.4169 15.359C43.9391 15.7841 45.3391 16.2397 45.3391 17.3979V17.4284C45.3391 18.5535 44.3337 19.2841 42.9362 19.2841C41.6584 19.2841 40.4391 18.8564 39.2224 18.0342C39.1002 17.9452 38.9475 17.9146 38.7973 17.9146C38.3722 17.9146 38.0362 18.2481 38.0362 18.6452C38.0362 18.9481 38.1864 19.1619 38.3391 19.2841C39.6195 20.1979 41.2919 20.7426 42.842 20.7426C45.1559 20.7426 46.9809 19.4673 46.9809 17.2452V17.2146C46.9504 15.1452 45.0337 14.4452 43.2086 13.8979ZM56.0858 19.2548C58.336 19.2548 60.1916 17.5799 60.1916 14.7493V14.6882C60.1916 11.9493 58.3054 10.1853 56.0858 10.1853C53.8941 10.1853 51.8552 12.041 51.8552 14.6882V14.7493C51.8552 17.4577 53.9247 19.2548 56.0858 19.2548ZM51.9163 11.2188C52.8581 9.81879 54.2581 8.63261 56.3887 8.63261C59.1861 8.63261 61.9556 10.8548 61.9556 14.6882V14.7493C61.9556 18.5548 59.2192 20.805 56.3887 20.805C54.2276 20.805 52.8276 19.6188 51.9163 18.3104V23.3912C51.9163 23.8773 51.5498 24.2744 51.0636 24.2744C50.5774 24.2744 50.1803 23.8773 50.1803 23.3912V9.63806C50.1803 9.14934 50.5469 8.75479 51.0331 8.75479C51.5218 8.75479 51.9163 9.14934 51.9163 9.63806V11.2188ZM73.6471 16.2705C73.6471 18.1261 71.8831 19.4345 69.7526 19.4345C68.1719 19.4345 66.8304 18.5843 66.8304 17.1232V17.0927C66.8304 15.6316 68.0497 14.6872 70.2388 14.6872C71.6693 14.6872 72.8249 14.9316 73.6777 15.176L73.6471 16.2705ZM70.3304 8.72577C68.8388 8.72577 67.6831 9.02868 66.5275 9.51486C66.3137 9.6065 66.0413 9.88141 66.0413 10.2454C66.0413 10.6425 66.4053 10.976 66.8024 10.976C66.894 10.976 67.0162 10.9454 67.1053 10.9149C67.958 10.5203 68.9609 10.276 70.1166 10.276C72.3082 10.276 73.586 11.373 73.586 13.4705V13.8676C72.55 13.5621 71.486 13.3789 69.9944 13.3789C67.0442 13.3789 65.0053 14.6872 65.0053 17.1538V17.1843C65.0053 19.5872 67.1969 20.804 69.3555 20.804C71.3944 20.804 72.7639 19.8621 73.586 18.7956V19.8621C73.586 20.3178 73.9195 20.6818 74.4082 20.6818C74.8944 20.6818 75.2279 20.3178 75.2279 19.8316V13.44C75.2279 11.9509 74.8333 10.8232 74.0417 10.0316C73.222 9.15086 71.9748 8.72577 70.3304 8.72577ZM87.7103 17.8217C87.8019 17.7301 87.9826 17.6104 88.1964 17.6104C88.6546 17.6104 88.9881 18.005 88.9881 18.4021C88.9881 18.6133 88.8964 18.8272 88.7768 18.9493C87.6492 20.0744 86.3103 20.8355 84.363 20.8355C80.9852 20.8355 78.399 18.0355 78.399 14.7799V14.7493C78.399 11.4632 80.9546 8.66315 84.363 8.66315C86.3103 8.66315 87.6186 9.42424 88.6546 10.3686C88.8048 10.4908 88.927 10.7021 88.927 10.977C88.927 11.4326 88.563 11.7966 88.1048 11.7966C87.863 11.7966 87.6492 11.7075 87.527 11.5853C86.6743 10.8242 85.7324 10.1853 84.3324 10.1853C81.9601 10.1853 80.1655 12.1937 80.1655 14.6882V14.7188C80.1655 17.2439 82.0186 19.2548 84.4546 19.2548C85.7935 19.2548 86.8601 18.6439 87.7103 17.8217ZM93.9237 14.0806C94.135 11.7974 95.6877 10.125 97.7266 10.125C100.038 10.125 101.257 11.9806 101.438 14.0806H93.9237ZM97.7572 8.63337C94.5321 8.63337 92.1597 11.3417 92.1597 14.689V14.7196C92.1597 18.3392 94.7739 20.7752 97.971 20.7752C99.9463 20.7752 101.257 20.0752 102.382 19.0112C102.566 18.8559 102.657 18.6446 102.657 18.4308C102.657 18.0363 102.321 17.7003 101.896 17.7003C101.682 17.7003 101.53 17.7919 101.407 17.9141C100.555 18.7057 99.4932 19.253 98.0601 19.253C95.9906 19.253 94.1961 17.8225 93.9543 15.2974H102.382C102.807 15.2974 103.204 14.9639 103.204 14.4752C103.174 11.4639 101.224 8.63337 97.7572 8.63337ZM111.663 13.8583L111.789 13.8979C113.617 14.4452 115.534 15.1452 115.562 17.2146V17.2452C115.562 19.4673 113.739 20.7426 111.423 20.7426C109.873 20.7426 108.2 20.1979 106.922 19.2841C106.77 19.1619 106.617 18.9481 106.617 18.6452C106.617 18.2481 106.953 17.9146 107.378 17.9146C107.531 17.9146 107.683 17.9452 107.806 18.0342C109.02 18.8564 110.239 19.2841 111.517 19.2841C112.914 19.2841 113.92 18.5535 113.92 17.4284V17.3979C113.92 16.2397 112.52 15.7841 110.998 15.359C109.175 14.8422 107.134 14.2008 107.134 12.0728V12.0422C107.134 10.0313 108.775 8.69497 111.092 8.69497C112.306 8.69497 113.675 9.08952 114.803 9.69788C115.017 9.85061 115.228 10.0924 115.228 10.4284C115.228 10.823 114.895 11.159 114.467 11.159C114.32 11.159 114.215 11.1199 114.13 11.0886C114.109 11.0808 114.089 11.0734 114.07 11.0673C113.067 10.4895 112.034 10.1535 111.028 10.1535C109.659 10.1535 108.775 10.8841 108.775 11.859V11.8895C108.775 12.9543 110.161 13.3879 111.663 13.8583ZM125.031 8.63286C123.023 8.63286 121.806 9.63832 121.047 10.9136V4.8605C121.047 4.37432 120.648 3.97723 120.164 3.97723C119.675 3.97723 119.311 4.37432 119.311 4.8605V19.7998C119.311 20.2885 119.706 20.683 120.195 20.683C120.681 20.683 121.047 20.2885 121.047 19.7998V13.8969C121.047 11.7078 122.536 10.2467 124.545 10.2467C126.581 10.2467 127.77 11.5856 127.77 13.7772V19.8303C127.77 20.3165 128.164 20.7136 128.653 20.7136C129.139 20.7136 129.503 20.3165 129.503 19.8303V13.3496C129.503 10.5496 127.831 8.63286 125.031 8.63286ZM133.738 5.22399C133.738 4.67672 134.165 4.31272 134.743 4.31272C135.323 4.31272 135.777 4.67672 135.777 5.22399V5.52944C135.777 6.04617 135.323 6.44072 134.743 6.44072C134.196 6.44072 133.738 6.07672 133.738 5.52944V5.22399ZM134.743 8.78584C134.257 8.78584 133.89 9.18039 133.89 9.66912V19.8C133.89 20.2888 134.285 20.6833 134.774 20.6833C135.26 20.6833 135.626 20.2888 135.626 19.8V9.66912C135.626 9.14984 135.229 8.78584 134.743 8.78584ZM145.875 19.2548C148.128 19.2548 149.984 17.5799 149.984 14.7493V14.6882C149.984 11.9493 148.097 10.1853 145.875 10.1853C143.684 10.1853 141.647 12.041 141.647 14.6882V14.7493C141.647 17.4577 143.714 19.2548 145.875 19.2548ZM141.739 11.2188C142.681 9.81879 144.081 8.63261 146.211 8.63261C148.978 8.63261 151.778 10.8548 151.778 14.6882V14.7493C151.778 18.5548 149.039 20.805 146.211 20.805C144.05 20.805 142.65 19.6188 141.739 18.3104V23.3912C141.739 23.8773 141.372 24.2744 140.886 24.2744C140.397 24.2744 140.003 23.8773 140.003 23.3912V9.63806C140.003 9.14934 140.369 8.75479 140.856 8.75479C141.342 8.75479 141.739 9.14934 141.739 9.63806V11.2188Z" fill="white"/>
</svg>
